:SAMPLES-PER-SECOND 30
:FULLY-SPECIFIED
:DEGREES
603
root  -61.2863 34.2105 -2.55006 13.2448 -70.2936 -8.25931
RightUpLeg  -47.6842 -21.9431 4.43234
RightLeg  60.1323 1.85259 2.96531
RightFoot  -15.9736 -0.251305 -3.54294
RightToes  4.01633e-009 0 -3.6325e-017
Spine  97.3705 -19.6379 15.3599
Spine1  -14.7748 -2.79734 1.95054
HEad  -14.6748 -51.305 -39.4065
LeftShoulder1  -0.0791019 -17.6783 10.0854
LeftArm  -68.9806 -59.7601 8.59974
LeftForeArm  -9.60658 -14.8058 3.59285
LeftHand  -0.0298892 4.71607 0.854947
RightShoulder  0.0552441 10.0907 -9.2168
RightArm  -51.6322 55.0528 -12.2822
RightForeArm  -36.1507 6.95823 -2.24894
RightHand  -0.896383 12.7357 -6.15063
LeftUpLeg  -49.5279 -5.37033 4.0265
LeftLeg  60.9892 -0.0465542 0.48875
LeftFoot  -15.0713 0.214664 3.81075
LeftToes  -1.95724e-009 9.62483e-011 3.51777e-011
604
root  -61.2712 34.1989 -2.40994 13.2593 -70.205 -9.28052
RightUpLeg  -46.5094 -22.006 4.09184
RightLeg  60.208 1.83074 2.93356
RightFoot  -16.0379 -0.242187 -3.26174
RightToes  4.01633e-009 0 -3.6325e-017
Spine  98.0442 -20.3789 15.5075
Spine1  -14.948 -2.95524 1.57025
HEad  -15.9736 -51.5796 -38.2732
LeftShoulder1  0.00284602 -17.7806 9.64195
LeftArm  -67.8869 -59.8004 8.12849
LeftForeArm  -9.58488 -14.9542 3.18293
LeftHand  -0.0278735 4.83102 0.378586
RightShoulder  0.0453667 10.0451 -9.29953
RightArm  -50.8591 54.8909 -11.3598
RightForeArm  -35.5905 7.29086 -2.1998
RightHand  -0.917426 12.7817 -6.26951
LeftUpLeg  -48.601 -5.70483 4.09339
LeftLeg  61.335 0.0789052 0.74389
LeftFoot  -15.2316 0.227992 4.01502
LeftToes  -1.95724e-009 9.62483e-011 3.51777e-011
605
root  -61.2793 34.11 -2.28272 13.3747 -70.4051 -9.21347
RightUpLeg  -46.9441 -21.7964 3.84548
RightLeg  60.7372 1.79111 2.92347
RightFoot  -16.1425 -0.23913 -3.10035
RightToes  4.01633e-009 0 -3.6325e-017
Spine  97.872 -20.3603 15.8047
Spine1  -15.7679 -2.77863 1.65895
HEad  -14.5009 -51.7903 -40.0042
LeftShoulder1  0.133622 -17.7538 8.93924
LeftArm  -66.0871 -60.4534 7.42834
LeftForeArm  -10.3064 -14.9693 2.69339
LeftHand  -0.0300358 4.69657 0.968593
RightShoulder  0.0880367 10.1535 -8.94218
RightArm  -49.6511 54.6743 -11.4281
RightForeArm  -35.6155 6.97224 -1.873
RightHand  -0.952106 13.3548 -6.30863
LeftUpLeg  -48.9732 -5.74237 3.84932
LeftLeg  61.875 0.195959 0.996099
LeftFoot  -15.4097 0.243529 4.24838
LeftToes  -1.95724e-009 9.62483e-011 3.51777e-011
606
root  -61.2526 34.0693 -2.18213 12.8876 -70.5235 -8.55975
RightUpLeg  -47.2208 -21.6077 3.41195
RightLeg  60.9734 1.73377 2.84287
RightFoot  -16.2015 -0.230621 -2.85406
RightToes  4.01633e-009 0 -3.6325e-017
Spine  97.658 -20.6884 15.5209
Spine1  -15.5577 -3.32003 0.975303
HEad  -14.0732 -51.4312 -40.2818
LeftShoulder1  0.150329 -17.8909 8.85439
LeftArm  -65.6143 -60.066 8.64368
LeftForeArm  -10.5081 -14.5064 2.90038
LeftHand  -0.0351861 4.59565 1.41567
RightShoulder  0.0450763 10.192 -9.30514
RightArm  -50.3748 55.1912 -10.8073
RightForeArm  -34.6612 6.52783 -2.24771
RightHand  -0.910896 13.1863 -6.10463
LeftUpLeg  -49.1885 -5.83045 3.4125
LeftLeg  62.0279 0.304974 1.22626
LeftFoot  -15.4747 0.247965 4.29176
LeftToes  -1.95724e-009 9.62483e-011 3.51777e-011
607
root  -61.1854 34.0905 -2.06343 12.3282 -70.5179 -8.87973
RightUpLeg  -46.1567 -21.6871 2.90408
RightLeg  60.8009 1.7819 2.91512
RightFoot  -16.1846 -0.217955 -2.56886
RightToes  4.01633e-009 0 -3.6325e-017
Spine  98.1617 -21.1314 15.4968
Spine1  -15.4754 -3.5194 1.03432
HEad  -14.5026 -51.754 -40.3326
LeftShoulder1  0.210251 -17.9482 8.5373
LeftArm  -64.9981 -60.3704 8.87923
LeftForeArm  -10.5946 -13.9728 3.18102
LeftHand  -0.0512913 3.94168 2.68494
RightShoulder  0.036291 10.2441 -9.37989
RightArm  -51.0974 55.7943 -11.1232
RightForeArm  -33.5096 5.74844 -2.50492
RightHand  -0.975464 12.8536 -6.61933
LeftUpLeg  -48.2341 -5.87987 3.14965
LeftLeg  61.9735 0.345997 1.30809
LeftFoot  -15.4634 0.257306 4.56534
LeftToes  -1.95724e-009 9.62483e-011 3.51777e-011
608
root  -61.1454 34.0428 -1.93762 13.3543 -70.5379 -8.59839
RightUpLeg  -47.7848 -21.5068 3.09101
RightLeg  60.9486 1.73603 2.8436
RightFoot  -15.8352 -0.217894 -2.82421
RightToes  4.01633e-009 0 -3.6325e-017
Spine  96.6972 -20.8961 16.2345
Spine1  -15.9941 -3.25042 1.41369
HEad  -14.483 -52.0437 -40.96
LeftShoulder1  0.304448 -18.0014 8.03903
LeftArm  -64.5922 -61.2435 8.42601
LeftForeArm  -8.97191 -13.6385 3.35705
LeftHand  -0.0442139 4.28418 2.05867
RightShoulder  0.0442405 10.3471 -9.317
RightArm  -50.2756 55.9876 -11.9448
RightForeArm  -31.7696 4.75722 -2.27472
RightHand  -1.12421 12.5002 -7.69229
LeftUpLeg  -49.74 -6.05094 2.98371
LeftLeg  62.044 0.437233 1.49804
LeftFoot  -15.321 0.252629 4.61617
LeftToes  -1.95724e-009 9.62483e-011 3.51777e-011
609
root  -61.0974 34.0892 -1.84393 12.997 -70.8755 -7.75562
RightUpLeg  -48.1643 -21.2597 2.74475
RightLeg  60.5826 1.78723 2.89838
RightFoot  -15.6356 -0.209308 -2.75938
RightToes  4.01633e-009 0 -3.6325e-017
Spine  95.8421 -20.22 16.5346
Spine1  -15.7366 -2.68143 2.03021
HEad  -15.8542 -52.9875 -40.414
LeftShoulder1  0.302744 -18.0725 8.05372
LeftArm  -65.1712 -62.4437 8.43432
LeftForeArm  -5.7761 -13.1343 3.88008
LeftHand  -0.0270637 5.22626 0.687401
RightShoulder  0.0491546 10.8485 -9.2886
RightArm  -49.727 55.3452 -13.8948
RightForeArm  -28.6211 3.65488 -2.1685
RightHand  -1.02562 12.5641 -7.05166
LeftUpLeg  -49.9815 -5.94785 2.49158
LeftLeg  61.604 0.477202 1.5523
LeftFoot  -15.1208 0.244493 4.65977
LeftToes  -1.95724e-009 9.62483e-011 3.51777e-011
610
root  -60.9969 34.3103 -1.72172 12.4956 -71.0026 -8.60574
RightUpLeg  -45.9094 -21.3322 2.30075
RightLeg  59.0908 1.89493 2.91417
RightFoot  -15.2239 -0.18759 -2.50459
RightToes  4.01633e-009 0 -3.6325e-017
Spine  96.4345 -20.7807 16.3317
Spine1  -14.9812 -2.99305 1.75527
HEad  -15.9815 -52.5406 -40.5475
LeftShoulder1  0.403344 -18.0322 7.5167
LeftArm  -65.8236 -62.8138 9.55585
LeftForeArm  -2.72645 -12.7929 4.08508
LeftHand  -0.0377272 4.59026 1.76453
RightShoulder  0.0247287 10.7616 -9.48331
RightArm  -51.3017 56.3849 -14.049
RightForeArm  -24.1507 3.59641 -2.7012
RightHand  -1.02622 10.3836 -7.91089
LeftUpLeg  -48.0122 -5.92834 2.33302
LeftLeg  60.5412 0.549064 1.62827
LeftFoot  -14.5472 0.229027 5.04819
LeftToes  -1.95724e-009 9.62483e-011 3.51777e-011
611
root  -60.917 34.4902 -1.60947 13.4411 -70.9371 -9.0975
RightUpLeg  -45.9024 -21.5363 2.50121
RightLeg  57.878 2.10281 3.12974
RightFoot  -14.2535 -0.167061 -2.78554
RightToes  4.01633e-009 0 -3.6325e-017
Spine  95.0804 -20.9588 16.8216
Spine1  -14.6 -3.25247 1.83736
HEad  -16.4338 -52.8292 -40.6318
LeftShoulder1  0.539127 -17.9006 6.77924
LeftArm  -64.3674 -63.7155 10.1488
LeftForeArm  -1.70321 -11.5774 4.14899
LeftHand  -0.0799626 3.27335 3.58697
RightShoulder  0.0550057 10.5559 -9.23451
RightArm  -51.5734 57.6775 -13.5587
RightForeArm  -22.1159 3.69431 -2.65813
RightHand  -1.15581 10.2318 -8.95881
LeftUpLeg  -48.1216 -6.02995 2.33063
LeftLeg  59.5478 0.626459 1.70773
LeftFoot  -13.6881 0.187774 5.15202
LeftToes  -1.95724e-009 9.62483e-011 3.51777e-011
612
root  -60.8479 34.8131 -1.54082 13.1945 -71.3779 -8.20459
RightUpLeg  -45.6498 -21.2344 2.26298
RightLeg  55.8954 2.33019 3.25044
RightFoot  -12.9954 -0.131668 -3.05621
RightToes  4.01633e-009 0 -3.6325e-017
Spine  93.8472 -20.8288 16.5609
Spine1  -14.0905 -3.78821 1.14021
HEad  -17.291 -52.1484 -39.8079
LeftShoulder1  0.754158 -17.5387 5.55524
LeftArm  -63.5737 -64.6983 9.3733
LeftForeArm  1.08848 -11.1626 4.09023
LeftHand  -0.120964 2.2261 4.12844
RightShoulder  0.146454 10.1542 -8.44304
RightArm  -51.7412 59.4999 -10.7792
RightForeArm  -17.9245 4.68431 -2.96576
RightHand  -1.18161 9.66262 -9.48217
LeftUpLeg  -47.6822 -5.85359 1.90207
LeftLeg  57.5351 0.798646 1.877
LeftFoot  -12.4118 0.125384 5.45706
LeftToes  -1.95724e-009 9.62483e-011 3.51777e-011
613
root  -60.7952 35.2742 -1.48373 12.8862 -71.7698 -8.00537
RightUpLeg  -44.0693 -21.3729 2.09816
RightLeg  53.0745 2.82758 3.61781
RightFoot  -11.5738 -0.0854256 -3.10684
RightToes  4.01633e-009 0 -3.6325e-017
Spine  93.0088 -20.2215 16.5816
Spine1  -13.6289 -3.49537 1.60816
HEad  -16.3841 -52.8521 -41.6226
LeftShoulder1  1.08231 -16.8263 3.57573
LeftArm  -62.0951 -66.992 3.62145
LeftForeArm  5.06217 -11.7572 4.42971
LeftHand  -0.127299 2.31701 4.22573
RightShoulder  0.341798 9.63312 -6.69987
RightArm  -50.2905 60.9963 -7.66224
RightForeArm  -15.8428 6.18178 -2.71332
RightHand  -1.72712 11.1796 -12.2918
LeftUpLeg  -46.001 -5.6293 1.63159
LeftLeg  54.773 1.05388 2.09053
LeftFoot  -11.0733 0.0536169 5.74934
LeftToes  -1.95724e-009 9.62483e-011 3.51777e-011
614
root  -60.7521 35.7655 -1.4689 12.6122 -72.5041 -7.24741
RightUpLeg  -43.0007 -21.1871 1.97778
RightLeg  49.9127 3.51744 4.10591
RightFoot  -10.1806 -0.0406582 -2.72478
RightToes  4.01633e-009 0 -3.6325e-017
Spine  91.4323 -19.4343 16.1176
Spine1  -12.4383 -3.65108 1.37492
HEad  -16.987 -53.0366 -41.5415
LeftShoulder1  1.40148 -16.1382 1.49752
LeftArm  -56.6789 -67.9437 -3.03963
LeftForeArm  4.57035 -11.7927 3.95156
LeftHand  -0.272652 0.417913 6.43821
RightShoulder  0.41803 9.11165 -5.86832
RightArm  -46.9871 62.54 -0.849048
RightForeArm  -16.0038 7.72913 -2.55547
RightHand  -2.68563 14.2078 -16.2522
LeftUpLeg  -44.6719 -5.26594 1.34193
LeftLeg  51.5571 1.31172 2.22859
LeftFoot  -9.6176 -0.0277857 5.68632
LeftToes  -1.95724e-009 9.62483e-011 3.51777e-011
615
root  -60.6975 36.1798 -1.44789 12.8395 -73.0404 -6.15149
RightUpLeg  -43.0719 -21.1541 2.20098
RightLeg  46.9687 4.01416 4.24476
RightFoot  -8.57075 0.00991025 -2.81264
RightToes  4.01633e-009 0 -3.6325e-017
Spine  88.0406 -18.8621 16.1703
Spine1  -10.405 -4.06812 0.553977
HEad  -17.7083 -53.1879 -40.8285
LeftShoulder1  1.75362 -15.1092 -1.095
LeftArm  -48.8209 -69.0073 -10.6306
LeftForeArm  2.94181 -11.2446 2.9537
LeftHand  -0.319994 0.398143 7.48066
RightShoulder  0.577196 8.50951 -4.17578
RightArm  -42.2648 63.7835 6.90198
RightForeArm  -14.0062 9.26632 -2.30196
RightHand  -2.65382 14.6565 -15.6418
LeftUpLeg  -44.4609 -4.99175 1.0314
LeftLeg  48.5554 1.49266 2.23335
LeftFoot  -8.14219 -0.107744 5.62145
LeftToes  -1.95724e-009 9.62483e-011 3.51777e-011
616
root  -60.6389 36.697 -1.43559 12.4149 -73.5808 -5.67343
RightUpLeg  -41.2392 -21.6677 2.28652
RightLeg  43.1439 5.01153 4.69636
RightFoot  -6.89763 0.0652019 -2.87377
RightToes  4.01633e-009 0 -3.6325e-017
Spine  85.0918 -18.4884 15.9967
Spine1  -7.31137 -4.53722 -0.217958
HEad  -21.4685 -53.707 -37.6072
LeftShoulder1  2.01971 -14.0348 -3.48883
LeftArm  -39.6991 -68.6837 -20.5318
LeftForeArm  2.63802 -10.8451 2.10611
LeftHand  -0.344645 0.465871 8.12732
RightShoulder  0.728502 7.98678 -2.37198
RightArm  -36.1497 64.9372 14.7107
RightForeArm  -11.5687 9.75392 -1.74451
RightHand  -2.35928 13.6199 -14.716
LeftUpLeg  -42.4953 -4.95676 0.921842
LeftLeg  44.8796 1.84192 2.36253
LeftFoot  -6.54199 -0.191788 5.49877
LeftToes  -1.95724e-009 9.62483e-011 3.51777e-011
617
root  -60.5827 37.2262 -1.47305 11.6162 -74.2816 -4.76523
RightUpLeg  -39.43 -22.0095 2.34485
RightLeg  39.177 6.11664 5.03633
RightFoot  -4.96022 0.139077 -3.09119
RightToes  4.01633e-009 0 -3.6325e-017
Spine  82.6099 -17.016 15.8175
Spine1  -6.35957 -4.00594 0.477514
HEad  -20.1317 -54.3259 -39.7394
LeftShoulder1  2.337 -12.9296 -6.52123
LeftArm  -25.8174 -66.8709 -35.4842
LeftForeArm  4.68138 -9.72847 0.546232
LeftHand  -0.442281 -0.640749 8.66375
RightShoulder  0.88127 6.87377 0.0338754
RightArm  -25.0482 65.2546 24.2753
RightForeArm  -9.76694 8.76016 -0.024973
RightHand  -2.39194 13.6796 -14.8587
LeftUpLeg  -40.4137 -4.57169 0.690956
LeftLeg  40.8565 2.06734 2.29218
LeftFoot  -4.73734 -0.288573 5.49972
LeftToes  -1.95724e-009 9.62483e-011 3.51777e-011
